<?xml version="1.0" encoding="UTF-8"?> <!-- Generator: Adobe Illustrator 23.0.3, SVG Export Plug-In . SVG Version: 6.00 Build 0) --> <svg xmlns="http://www.w3.org/2000/svg" xmlns:xlink="http://www.w3.org/1999/xlink" id="Layer_1" x="0px" y="0px" viewBox="0 0 1000 300" style="enable-background:new 0 0 1000 300;" xml:space="preserve"> <style type="text/css"> .st0{fill:#75B452;} </style> <path class="st0" d="M272.5,42.8l-89.9,140.6c-4.3,6.7-13.3,8.7-20,4.4c-6.7-4.3-8.7-13.3-4.4-20L248,27.1c4.3-6.7,13.3-8.7,20-4.4 C274.8,27,276.8,36,272.5,42.8"></path> <path class="st0" d="M233,37.7L152.2,164c-4.3,6.7-13.3,8.7-20,4.4c-6.7-4.3-8.7-13.3-4.4-20l80.8-126.3c4.3-6.7,13.3-8.7,20-4.4 C235.3,22,237.3,31,233,37.7"></path> <path class="st0" d="M191.1,35l-70,109.5c-4.3,6.7-13.3,8.7-20,4.4c-6.7-4.3-8.7-13.3-4.4-20l70-109.5c4.3-6.7,13.3-8.7,20-4.4 C193.4,19.3,195.4,28.3,191.1,35"></path> <polygon class="st0" points="131.5,215.2 89.9,191.1 86.3,242.5 "></polygon> <g> <path d="M309.1,176.3c-0.4,12.2-0.6,23.1-0.6,32.8c0,9.7,0.2,20.6,0.6,32.8h-89.2c0.4-9.1,0.6-20.1,0.6-32.8 c0-12.7-0.2-23.7-0.6-32.8h24.8v43.8h9.3v-43.8h21.3v43.8h9.1v-43.8H309.1z"></path> <path d="M388.5,220.3c1.9,3.6,3.7,7.9,5.4,13c1.7,4.4,2.9,7.3,3.6,8.7h-29c-0.2-0.6-0.7-2.3-1.4-5.3c-0.6-3-1.3-5.4-1.9-7.2 c-0.6-1.8-1.6-3.4-2.9-4.7c-2-2.2-4.2-3.6-6.7-4.2c-2.5-0.6-6.2-1-11.1-1v22.4h-25.7c0.4-9.1,0.6-20.1,0.6-32.8 c0-12.7-0.2-23.7-0.6-32.8h25.7v23.6h0.5c9.5-9.5,16.5-17.4,20.8-23.6h31.7l-28.1,28c4.2,1.8,7.8,3.8,10.8,6.3 C383.8,213.5,386.5,216.7,388.5,220.3z"></path> <path d="M410.8,233.7c-6.5-6.3-9.7-14.6-9.7-24.8c0-10,3.2-18.2,9.7-24.4c6.5-6.3,16.5-9.4,30.2-9.4c9.2,0,16.9,1.5,23.1,4.5 c6.2,3,10.8,7.1,13.8,12.1c3,5.1,4.4,10.8,4.4,17.1c0,10.3-3.4,18.6-10.3,24.9s-17.2,9.4-31.1,9.4 C427.3,243.1,417.2,240,410.8,233.7z M453.1,219c2.6-2.5,3.8-5.8,3.8-10c0-3.9-1.3-7.2-3.8-9.7c-2.6-2.5-6.5-3.8-11.7-3.8 c-5.2,0-9,1.2-11.4,3.7c-2.4,2.5-3.6,5.7-3.6,9.7c0,4.2,1.2,7.5,3.6,10c2.4,2.5,6.2,3.7,11.4,3.7 C446.7,222.7,450.6,221.5,453.1,219z"></path> <path d="M565.7,242.5h-26.3V199h-17.1l-0.1,3.7c-0.1,3.8-0.2,7.2-0.4,10.2c-0.2,2.9-0.6,6.1-1.3,9.4c-2.7,14.7-13.8,22-33.3,22 v-19.1c3.8-0.5,6.3-1.7,7.7-3.5c1.4-1.9,2-4.8,2-8.8v-36.6l68.8,0.1V242.5z"></path> <path d="M652.4,222c0,2.7,0.3,4.6,1,5.8c0.6,1.1,1.9,1.9,3.8,2.4l-0.5,11.3c-2.6,0.4-4.8,0.7-6.7,0.8c-1.9,0.2-4.4,0.2-7.5,0.2 c-6.9,0-11.5-1.5-13.7-4.6c-2.2-3.1-3.4-7-3.4-11.8v-3c-2.3,6.6-5.7,11.5-10.2,14.7c-4.4,3.2-10.1,4.8-17,4.8c-8,0-14-1.6-18.1-4.8 c-4-3.2-6.1-8-6.1-14.3c0-5.2,1.7-9.3,5.2-12.3c3.4-3,8.8-5,16-6.1c-6.1-4.3-12.2-8.1-18.3-11.3c4.8-6.1,10.3-10.7,16.5-13.9 c6.2-3.2,13.7-4.8,22.5-4.8c12.3,0,21.5,2.7,27.5,8c6,5.3,9,13.5,9,24.6V222z M607.6,198.3c-3.1,1.4-5.9,3.4-8.4,6.1 c4.8-0.6,10.8-0.8,18-0.8c3,0,5-0.4,6.3-1.1c1.2-0.7,1.8-1.6,1.8-2.8c0-1-0.6-1.8-1.8-2.5c-1.2-0.7-2.9-1-5-1 C614.4,196.3,610.8,196.9,607.6,198.3z M618,220.4c3.6-1.7,6.1-4,7.5-6.8v-3.1c-1.9,1-4,1.7-6.4,2.2c-2.3,0.5-5.1,1-8.4,1.5 l-4.3,0.7c-4.5,0.9-6.7,2.4-6.7,4.6c0,2.3,2.1,3.5,6.3,3.5C610.3,222.9,614.4,222.1,618,220.4z"></path> </g> <g> <path d="M296.8,109.2c4.9,0,8.9,0.8,12,2.5c3.1,1.6,5.3,3.7,6.7,6.3c1.4,2.5,2,5.2,2,7.9c0,6.3-2.1,11.7-6.3,16.2 c-4.2,4.4-9.8,7.8-17,10.1c-7.1,2.3-15.1,3.4-23.8,3.4c-25.3,0-41.7-8.8-49.2-26.5l6.7-1.7c5-1.2,9.2-2.3,12.7-3.4 c3.5-1.1,6.6-2.3,9.2-3.7c1.6,4,3.9,6.9,6.9,8.6c3,1.7,7.2,2.6,12.4,2.6c5.6,0,10.2-0.6,13.7-1.9c3.5-1.3,5.3-3.2,5.3-5.8 c0-1.4-0.7-2.4-2-3.1c-1.4-0.7-3.5-1.2-6.5-1.5c-3-0.3-7.1-0.4-12.5-0.4h-9.1v-21h5.5c6.1,0,11.1-0.3,14.9-0.8 c3.8-0.5,5.8-1.7,5.8-3.4c0-2-1-3.6-3.1-4.9c-2-1.2-5.2-1.9-9.6-1.9c-5.6,0-10.2,1.2-13.6,3.5c-3.5,2.3-6.2,5.7-8.1,10.1 c-8.6-3.4-17.7-5.9-27.4-7.3c3.8-8.7,9.8-15.3,17.7-20.1c8-4.7,18.3-7.1,30.8-7.1c8.2,0,15.5,1.1,22.1,3.2 c6.5,2.1,11.7,5.1,15.4,8.8c3.7,3.8,5.6,8,5.6,12.6c0,2.7-0.6,5.2-1.9,7.3c-1.3,2.1-3.8,4.2-7.6,6.3c-3.8,2-9.2,4.1-16.4,6.1 C291.2,109.5,294,109.2,296.8,109.2z"></path> <path d="M390.7,124.2h-39.2c0.6,3.5,2.2,6.4,4.7,8.6c2.5,2.2,6.1,3.3,10.8,3.3c3.4,0,6.5-0.7,9.5-2c3-1.3,5.3-3.2,7.1-5.6 c5.4,2.6,12.5,5.5,21.4,8.5c-2.5,5.6-7,10.1-13.5,13.4c-6.5,3.3-15,5-25.5,5c-13.6,0-23.7-3.1-30.2-9.4c-6.5-6.3-9.8-14.6-9.8-24.8 c0-10,3.2-18.2,9.7-24.4c6.5-6.3,16.6-9.4,30.3-9.4c8.2,0,15.3,1.4,21.3,4.1c6,2.7,10.6,6.5,13.8,11.4c3.2,4.9,4.8,10.4,4.8,16.7 c0,2.1-0.1,3.6-0.2,4.7H390.7z M357.8,107.9c-2.6,1.5-4.4,3.6-5.4,6.3h28.4c-1-2.6-2.5-4.6-4.7-6.2c-2.2-1.6-5-2.3-8.4-2.3 C363.6,105.6,360.4,106.4,357.8,107.9z"></path> <path d="M489.2,154.9h-26.3v-43.5h-17.1l-0.1,3.7c-0.1,3.8-0.2,7.2-0.4,10.2c-0.2,2.9-0.6,6.1-1.3,9.4c-2.7,14.7-13.8,22-33.3,22 v-19.1c3.8-0.5,6.3-1.7,7.7-3.5c1.4-1.9,2-4.8,2-8.8V88.6l68.8,0.1V154.9z"></path> <path d="M562.4,124.2h-39.2c0.6,3.5,2.2,6.4,4.7,8.6c2.5,2.2,6.1,3.3,10.8,3.3c3.4,0,6.5-0.7,9.5-2c3-1.3,5.3-3.2,7.1-5.6 c5.4,2.6,12.5,5.5,21.4,8.5c-2.5,5.6-7,10.1-13.5,13.4c-6.5,3.3-15.1,5-25.5,5c-13.6,0-23.7-3.1-30.2-9.4 c-6.5-6.3-9.8-14.6-9.8-24.8c0-10,3.2-18.2,9.7-24.4c6.5-6.3,16.6-9.4,30.3-9.4c8.2,0,15.3,1.4,21.3,4.1c6,2.7,10.6,6.5,13.8,11.4 c3.2,4.9,4.8,10.4,4.8,16.7c0,2.1-0.1,3.6-0.2,4.7H562.4z M522.5,81.8c-1.5-1.5-2.3-3.4-2.3-5.5c0-2.1,0.8-3.9,2.3-5.4 c1.5-1.5,3.4-2.3,5.5-2.3c2.1,0,3.9,0.8,5.4,2.3c1.5,1.5,2.3,3.3,2.3,5.4c0,2.2-0.8,4-2.3,5.5c-1.5,1.5-3.3,2.3-5.4,2.3 C525.9,84.1,524,83.3,522.5,81.8z M529.5,107.9c-2.6,1.5-4.4,3.6-5.4,6.3h28.4c-1-2.6-2.5-4.6-4.7-6.2c-2.2-1.6-5-2.3-8.4-2.3 C535.3,105.6,532.1,106.4,529.5,107.9z M541.9,81.8c-1.5-1.5-2.3-3.4-2.3-5.5c0-2.1,0.8-3.9,2.3-5.4c1.5-1.5,3.4-2.3,5.5-2.3 c2.1,0,3.9,0.8,5.4,2.3c1.5,1.5,2.3,3.3,2.3,5.4c0,2.2-0.8,4-2.3,5.5c-1.5,1.5-3.3,2.3-5.4,2.3C545.2,84.1,543.4,83.3,541.9,81.8z"></path> <path d="M661.7,88.6c-0.4,12.2-0.6,23.1-0.6,32.8c0,9.7,0.2,20.6,0.6,32.8h-26.1v-21.9h-23.6v21.9H586c0.4-9.1,0.6-20.1,0.6-32.8 c0-12.7-0.2-23.7-0.6-32.8h26.1v21.9h23.6V88.6H661.7z"></path> <path d="M748.4,134.3c0,2.7,0.3,4.6,1,5.8c0.6,1.1,1.9,1.9,3.8,2.4l-0.5,11.3c-2.6,0.4-4.8,0.7-6.7,0.8c-1.9,0.2-4.4,0.2-7.5,0.2 c-6.9,0-11.5-1.5-13.7-4.6c-2.2-3.1-3.4-7-3.4-11.8v-3c-2.3,6.6-5.7,11.5-10.2,14.7c-4.4,3.2-10.1,4.8-17,4.8c-8,0-14-1.6-18.1-4.8 c-4-3.2-6.1-8-6.1-14.3c0-5.2,1.7-9.3,5.2-12.3c3.4-3,8.8-5,16-6.1c-6.1-4.3-12.2-8.1-18.3-11.3c4.8-6.1,10.3-10.7,16.5-13.9 c6.2-3.2,13.7-4.7,22.5-4.7c12.3,0,21.5,2.7,27.5,8c6,5.3,9,13.5,9,24.6V134.3z M703.7,110.6c-3.1,1.4-5.9,3.4-8.4,6.1 c4.8-0.6,10.8-0.8,18-0.8c3,0,5-0.4,6.3-1.1c1.2-0.7,1.8-1.6,1.8-2.8c0-1-0.6-1.8-1.8-2.5c-1.2-0.7-2.9-1-5-1 C710.4,108.6,706.8,109.3,703.7,110.6z M714,132.7c3.6-1.7,6.1-4,7.5-6.8v-3.1c-1.9,1-4,1.7-6.4,2.2c-2.3,0.5-5.1,1-8.4,1.5 l-4.3,0.7c-4.5,0.9-6.7,2.4-6.7,4.6c0,2.3,2.1,3.5,6.3,3.5C706.4,135.3,710.4,134.4,714,132.7z"></path> <path d="M834.2,88.6c-0.4,12.2-0.6,23.1-0.6,32.8c0,9.7,0.2,20.6,0.6,32.8h-23.7v-20.9h-9.7c-5.5,8.7-9.7,15.7-12.5,20.9H760 c6.4-8.7,11.8-16.3,16.2-22.6c-6.2-1.6-10.5-4.2-13.1-7.8c-2.6-3.6-3.8-8.1-3.8-13.3c0-6.7,2.4-11.9,7.2-15.9 c4.8-3.9,13.3-5.9,25.5-5.9h18.5v-0.1H834.2z M810.5,116.4v-10.3h-10.8c-5.9,0-9.8,0.4-11.8,1.1s-3.1,2-3.1,4c0,2,1.1,3.4,3.2,4.1 c2.1,0.8,6,1.1,11.7,1.1H810.5z"></path> </g> </svg> 